<svg width="29" height="24" viewBox="0 0 29 24" fill="none" xmlns="http://www.w3.org/2000/svg">
<g clip-path="url(#clip0_3164_29986)">
<path opacity="0.4" d="M7 19.5C7 18.6703 7.67031 18 8.5 18H16H20.5H23.5V21H20.5H16H8.5C7.67031 21 7 20.3297 7 19.5Z" fill="#23B3FF"/>
<path d="M8.5 0C6.01562 0 4 2.01562 4 4.5V19.5C4 21.9844 6.01562 24 8.5 24H22H23.5C24.3297 24 25 23.3297 25 22.5C25 21.6703 24.3297 21 23.5 21H20.5H16H8.5C7.67031 21 7 20.3297 7 19.5C7 18.6703 7.67031 18 8.5 18H16H20.5H23.5C24.3297 18 25 17.3297 25 16.5V1.5C25 0.670312 24.3297 0 23.5 0H22H20.5V8.93906C20.5 9.56719 19.7734 9.91875 19.2812 9.525L16.75 7.5L14.2188 9.525C13.7266 9.91875 13 9.56719 13 8.93906V0H8.5Z" fill="#23B3FF"/>
</g>
<defs>
<clipPath id="clip0_3164_29986">
<rect width="21" height="24" fill="white" transform="translate(4)"/>
</clipPath>
</defs>
</svg>
