<svg width="18" height="18" viewBox="0 0 18 18" fill="none" xmlns="http://www.w3.org/2000/svg">
<path d="M8.99984 0.666672C4.40817 0.666672 0.666504 4.40834 0.666504 9C0.666504 13.5917 4.40817 17.3333 8.99984 17.3333C13.5915 17.3333 17.3332 13.5917 17.3332 9C17.3332 4.40834 13.5915 0.666672 8.99984 0.666672ZM12.9832 7.08334L8.25817 11.8083C8.1415 11.925 7.98317 11.9917 7.8165 11.9917C7.64984 11.9917 7.4915 11.925 7.37484 11.8083L5.0165 9.45C4.77484 9.20834 4.77484 8.80834 5.0165 8.56667C5.25817 8.325 5.65817 8.325 5.89984 8.56667L7.8165 10.4833L12.0998 6.20001C12.3415 5.95834 12.7415 5.95834 12.9832 6.20001C13.2248 6.44167 13.2248 6.83334 12.9832 7.08334Z" fill="#00946A"/>
</svg>
