<svg width="40" height="40" viewBox="0 0 40 40" fill="none" xmlns="http://www.w3.org/2000/svg">
<path d="M3.54659 26.2216C2.78622 21.2791 2.02584 16.3368 1.26547 11.3943C1.09684 10.2986 2.34347 9.55139 3.23022 10.2165C5.59922 11.9933 7.96809 13.7699 10.3371 15.5466C11.1171 16.1316 12.2283 15.9413 12.7691 15.13L18.6857 6.25501C19.311 5.31714 20.689 5.31714 21.3142 6.25501L27.2308 15.13C27.7716 15.9413 28.8828 16.1315 29.6628 15.5466C32.0318 13.7699 34.4007 11.9933 36.7697 10.2165C37.6565 9.55139 38.9031 10.2986 38.7346 11.3943C37.9742 16.3368 37.2138 21.2791 36.4535 26.2216H3.54659Z" fill="#FFB743"/>
<path d="M34.738 34.706H5.2625C4.315 34.706 3.54688 33.9379 3.54688 32.9904V29.2216H36.4538V32.9904C36.4536 33.9379 35.6855 34.706 34.738 34.706Z" fill="#FFB743"/>
</svg>
