<svg width="168" height="168" viewBox="0 0 168 168" fill="none" xmlns="http://www.w3.org/2000/svg">
<g clip-path="url(#clip0_3296_5811)">
<path d="M65.3099 137.338C62.8791 137.179 41.8029 137.818 39.368 137.928C37.2381 138.022 36.9738 138.307 36.5186 140.351C34.5959 148.947 34.6244 149.419 36.5186 149.684C38.4128 149.949 52.0056 149.256 52.9731 149.232C62.8262 148.984 64.1676 149.375 64.6066 147.782C67.5415 137.179 67.0293 137.452 65.3099 137.342V137.338ZM62.8669 146.296C62.7775 146.882 62.2938 146.638 62.0133 146.63C58.6679 146.549 55.3307 146.781 51.4447 146.842C36.3763 147.086 36.9698 147.689 37.2584 146.54C38.799 140.432 38.2177 140.119 39.1973 140.127C43.5833 140.151 60.1394 139.577 64.1351 139.443C65.2326 139.406 63.6636 141.088 62.871 146.296H62.8669Z" fill="#191919"/>
<path d="M146.33 79.083C138.676 78.5618 119.925 80.0807 119.746 78.8428C118.909 73.036 118.494 68.3736 112.519 67.0583C103.869 65.1567 83.3374 65.6697 74.4883 66.0281C64.4725 66.4353 61.1149 67.1357 58.8508 64.3585C58.0419 63.365 56.6314 61.1335 52.0341 60.4249C49.7293 60.0707 46.6929 59.8671 43.441 59.7856C43.3516 60.5186 43.0833 61.1783 42.1809 61.2679C41.7175 61.3127 41.2947 61.1213 40.9939 60.7629C40.8273 60.5634 40.6769 60.2051 40.5509 59.7449C35.3438 59.7246 29.9823 59.977 26.4418 60.3802C23.072 60.7629 18.4788 61.728 18.1983 65.1159C16.7837 82.1737 16.9829 112.946 17.2309 128.094C17.617 151.977 18.7796 159.685 27.271 160.023C38.1607 160.455 53.6153 159.986 96.3165 159.245C135.262 158.569 134.745 158.675 135.522 157.462C136.168 156.456 137.396 151.52 138.904 144.627L136.875 142.505C135.359 149.566 134.241 154.513 134.002 154.974C133.095 156.716 133.116 155.869 120.388 156.118L34.2788 157.824C19.995 158.125 20.1332 161.208 20.3771 106.83C20.5681 64.0206 18.2837 63.6541 27.3645 63.0433C32.4578 62.7012 53.1519 61.2434 56.0135 65.4783C57.8387 68.1781 60.4524 69.2694 63.5701 69.4486C66.9602 69.644 101.198 67.0054 112.316 69.7743C116.169 70.7353 116.031 73.7324 116.986 78.8794C117.21 80.0766 119.555 78.9324 42.7337 80.9439C40.4574 81.005 38.1526 82.9515 37.7665 85.2114C35.3682 99.2152 24.9785 145.449 24.4175 154.452C24.3809 155.031 25.4703 155.263 25.6573 154.721C26.8076 151.349 29.275 139.443 37.5957 98.47C41.4533 79.4658 36.9128 83.4523 60.5418 83.1062C111.621 82.361 143.534 81.5914 145.127 81.5792C147.688 81.5629 149.001 83.4849 148.659 85.4313C148.505 86.319 147.452 91.572 145.977 98.8202C146.57 99.8463 147.107 100.901 147.586 101.984C148.993 94.9884 150.216 89.0799 151.037 85.639C151.838 82.2877 149.855 79.3314 146.355 79.0952L146.33 79.083Z" fill="#191919"/>
<path d="M141.55 135.578C140.871 136.385 141.29 136.258 146.46 141.503C147.448 142.505 150.2 140.493 154.663 145.046C158.403 148.857 165.167 157.168 167.293 161.884C169.02 165.711 167.313 167.849 165.146 167.988C160 168.318 152.436 160.239 149.298 156.891C147.493 154.965 142.851 150.478 143.074 146.858C143.107 146.353 143.192 146.593 137.457 140.567C136.262 139.312 135.729 142.704 126.656 145.539C106.096 151.956 85.0975 135.11 86.5324 114.037C87.9144 93.7342 106.308 81.2208 124.14 85.0037C147.489 89.9553 156.163 118.207 141.55 135.578ZM117.12 139.85C130.697 140.009 141.343 129.373 141.668 116.464C142.022 102.501 131.16 91.4701 117.246 91.5475C104.068 91.6167 93.9182 101.866 93.402 114.758C92.8369 128.807 104.137 139.699 117.124 139.854L117.12 139.85ZM161.155 159.037C160.712 157.095 152.257 144.28 147.924 144.997C147.176 145.119 146.964 145.84 147.871 146.044C151.464 146.854 158.013 157.177 161.155 159.041V159.037ZM145.025 142.595C144.672 142.134 143.745 141.173 140.501 137.59C139.989 137.024 139.948 137.484 138.611 138.685C138.014 139.223 138.213 139.048 143.314 143.995C143.436 144.113 143.542 144.284 143.753 144.248C143.863 144.227 145.03 142.761 145.021 142.595H145.025Z" fill="#14BF9E"/>
<path d="M119.742 106.276C118.563 108.398 99.2025 121.485 102.003 116.737C103.471 114.249 116.868 106.056 119.742 106.276Z" fill="#14BF9E"/>
<path d="M100.166 111.985C101.028 109.827 115.511 101.149 116.21 102.017C116.702 102.628 97.9871 117.433 100.166 111.985Z" fill="#14BF9E"/>
<path d="M53.1723 9.85028C55.6518 7.50479 56.2697 9.67518 57.5704 9.97652C57.8021 10.3471 58.3346 9.7607 57.9729 9.18247L57.3144 7.70025C57.1761 7.33784 57.0623 6.86548 57.2412 6.57636C57.29 6.36462 57.42 6.28318 57.5461 6.20174C57.8062 6.03886 58.7818 5.15522 58.6679 4.68694C58.546 3.77073 56.855 4.38154 56.2819 4.47112C56.0461 4.52813 55.8388 4.47927 55.6274 4.4304C54.8917 4.05578 54.9283 2.80973 54.408 2.24372C54.282 2.10527 53.9771 1.97496 53.9365 2.15821C53.5584 2.84638 53.282 3.55899 53.1154 4.29603C53.0666 4.50777 53.0178 4.71952 52.8634 4.90276C52.7333 4.9842 52.6032 5.06564 52.5016 5.04121C51.8228 5.10636 51.2252 5.30182 50.7049 5.62758C50.5748 5.70902 50.5505 5.81489 50.5261 5.92077C50.5017 6.02664 50.4773 6.13251 50.583 6.15695C51.0911 6.82883 52.1114 6.7311 52.5178 7.37856C52.8593 7.92421 52.7008 8.59202 52.6682 9.25984C52.6439 9.72812 52.7373 10.1272 53.1682 9.85435L53.1723 9.85028Z" fill="#FFEE99"/>
<path d="M14.9383 19.387C14.3896 19.3707 13.7717 18.6744 13.1417 18.5319C13.0604 18.4056 12.7027 18.3608 12.8897 19.1386C13.662 20.5516 13.8408 20.857 13.6376 21.195C13.5075 21.2764 13.4831 21.3823 13.3571 21.4637C13.0726 21.7325 12.4832 22.3718 12.5157 22.7138C12.5807 23.3939 13.8246 22.7953 14.2717 22.7831C14.4018 22.7016 14.5075 22.7261 14.7148 22.7749C15.3448 22.9215 15.3164 24.021 15.8976 24.3793C15.9871 24.3997 16.105 24.4485 16.1334 24.3223C16.4017 23.7278 16.5643 22.9297 16.7472 22.1356C16.7716 22.0297 16.9017 21.9483 17.0073 21.9727C17.4504 21.9646 17.9463 21.7447 18.3325 21.5004C18.3731 21.3294 18.4991 21.1624 17.991 20.9466C17.6008 20.7796 17.0683 20.7715 16.8204 20.3765C16.3895 19.6883 16.7675 18.4789 16.3895 18.3934C16.2838 18.369 16.1781 18.3445 16.1537 18.4504C15.7635 18.6947 15.4912 19.4073 14.9424 19.3911L14.9383 19.387Z" fill="#FFEE99"/>
<path d="M3.39013 53.5554C3.57711 52.741 3.069 51.9307 2.25604 51.7434C1.44307 51.5561 0.634162 52.0651 0.44718 52.8795C0.260197 53.6939 0.768302 54.5042 1.58127 54.6915C2.39424 54.8789 3.20314 54.3699 3.39013 53.5554Z" fill="#FFEE99"/>
<path d="M128.461 28.1418C128.66 27.2704 128.116 26.399 127.246 26.1995C126.376 25.9999 125.506 26.5456 125.307 27.417C125.108 28.2884 125.653 29.1598 126.522 29.3594C127.392 29.5589 128.262 29.0132 128.461 28.1418Z" fill="#FFEE99"/>
<path d="M146.891 53.9626C147.131 52.9161 146.477 51.8696 145.432 51.6293C144.387 51.3891 143.343 52.0447 143.103 53.0912C142.863 54.1377 143.517 55.1842 144.562 55.4245C145.607 55.6647 146.651 55.0091 146.891 53.9626Z" fill="#FFEE99"/>
<path d="M97.8977 1.42524C97.9872 1.9994 98.4993 2.67129 98.2229 3.38389C97.9506 4.0965 96.8815 4.40597 96.4222 4.96384C95.9873 5.38734 96.723 5.58687 96.9547 5.52986C98.4506 5.41991 98.8083 5.30182 99.3651 5.6398C99.4546 5.7864 99.8611 7.30526 100.394 7.42743C101.235 7.62288 101.259 6.07551 101.377 5.54614C101.682 4.21052 103.105 5.18373 103.897 4.68287C104.003 4.70731 103.946 4.47113 103.841 4.4467C103.41 3.90511 102.958 3.46533 102.373 3.11107C102.267 3.08664 102.08 2.9319 101.918 2.67536C101.837 2.54505 101.861 2.43918 101.885 2.33331C102.113 1.83245 102.125 1.27865 102.036 0.704494C102.06 0.598621 101.979 0.468316 101.873 0.443884L101.662 0.39502C100.934 0.671918 100.662 1.38452 100.06 1.57998C99.3448 1.81209 98.3042 0.785935 97.853 1.07098C97.8286 1.17685 97.8042 1.28272 97.8855 1.41303L97.8977 1.42524Z" fill="#FFEE99"/>
<path d="M52.5869 4.59326C52.4528 4.6747 51.5178 4.63398 50.4935 5.27736C50.1033 5.52168 49.9407 6.23429 50.3309 6.47861C50.648 6.8451 51.0707 7.00798 51.4406 7.14643C52.1967 7.43147 52.408 7.54141 52.2983 8.80782C52.2576 9.28017 52.1885 10.2615 52.8227 10.4081C53.0869 10.4692 53.2535 10.3348 53.4527 10.1434C53.912 9.70774 54.5299 9.2028 55.2168 9.16616C55.7453 9.13765 56.6314 10.0987 57.359 10.3348C58.046 10.8886 58.8874 9.8584 58.3224 8.96255L57.6923 7.53327C57.5379 7.12199 57.5419 6.86953 57.5948 6.78401C57.6964 6.61706 57.5745 6.67 57.7696 6.54376C57.7858 6.53562 59.2817 5.45653 59.0703 4.58512C59.0419 4.35301 58.9077 4.12905 58.6923 3.98245C58.0053 3.5101 56.7087 3.98653 56.2249 4.06389C55.1559 4.31229 55.4729 2.48802 54.5177 1.7917C54.3266 1.65325 53.7129 1.51073 53.5584 1.99937C52.7536 3.48159 52.7698 4.30822 52.5869 4.59733V4.59326ZM50.9406 5.9411C51.3715 5.68457 51.8999 5.50947 52.4934 5.44431C52.7576 5.46467 53.0909 5.26107 53.1763 5.1552C53.5868 4.65434 53.4405 4.00689 54.1641 2.58167C54.5462 3.12325 54.5665 4.33672 55.4404 4.78465C55.5624 4.84573 56.0258 4.94345 56.3753 4.85794C56.6843 4.81722 57.9118 4.43445 58.2248 4.65027C58.4565 4.81315 57.5988 5.68049 57.3265 5.85152C57.1842 5.9411 56.9525 6.08362 56.855 6.41753C56.6761 6.76365 56.7005 7.24008 56.9282 7.84274C57.7086 9.60186 57.6639 9.47563 57.672 9.5815C56.542 9.28832 55.6111 7.09756 53.0625 9.38605C53.0787 8.68973 53.3023 7.86718 52.8552 7.15457C52.3715 6.38088 51.3756 6.45418 50.9325 5.9411H50.9406Z" fill="black"/>
<path d="M13.3653 18.1694C13.1417 17.978 12.6661 18.031 12.4832 18.3445C12.0523 19.0734 13.3612 20.5027 13.3124 20.9343C12.5685 21.5899 11.6092 22.726 12.4181 23.292C12.8002 23.5567 13.3612 23.4101 13.853 23.2798C14.3815 23.1414 14.3652 23.2025 14.4912 23.1251C14.479 23.1332 14.5644 23.1536 14.6294 23.1699C14.9668 23.2473 15.0603 24.5992 15.918 24.7987C16.231 24.872 16.4789 24.6602 16.5358 24.4119C16.7879 23.8703 16.9667 23.0111 17.113 22.3718C17.6943 22.331 18.2593 22.0256 18.552 21.8424C18.7796 21.6999 18.9544 21.0565 18.5439 20.8162C18.1049 20.3928 17.3529 20.4498 17.17 20.1566C16.9301 19.7779 17.0399 19.1956 16.9667 18.6418C17.0033 17.9903 16.1253 17.75 15.8448 18.1735C15.4871 18.4504 15.2188 18.9879 14.9627 18.9798C14.6254 18.9716 13.975 18.3567 13.3774 18.1694H13.3653ZM13.9831 21.4067C14.3571 20.7877 13.8815 20.1118 13.284 19.0123C13.7921 19.2526 14.3164 19.7738 14.9262 19.7942C15.5074 19.8105 15.8164 19.387 16.17 18.9757C16.1944 19.4847 16.1375 20.0588 16.4708 20.5882C16.8163 21.142 17.4504 21.1583 17.8244 21.3171C17.5358 21.4637 17.2553 21.5492 17.0277 21.5614C16.7269 21.5289 16.418 21.7406 16.3489 22.0419C16.1903 22.7382 16.0684 23.3043 15.9058 23.7888C15.6538 23.3409 15.5115 22.5428 14.8083 22.3799C14.601 22.331 14.3896 22.2822 14.1579 22.384C13.8408 22.4206 13.2189 22.6405 12.9384 22.6324C13.0075 22.4654 13.288 22.0908 13.6376 21.761C13.6945 21.7325 13.7677 21.6469 13.8124 21.5899C13.8652 21.5574 13.9547 21.4637 13.9872 21.4108L13.9831 21.4067Z" fill="black"/>
<path d="M0.0488328 52.7858C-0.186928 53.8161 0.459382 54.8504 1.48779 55.0865C2.51619 55.3227 3.54866 54.6753 3.78442 53.645C4.02019 52.6148 3.37388 51.5805 2.34547 51.3443C1.31706 51.1082 0.284594 51.7556 0.0488328 52.7858ZM0.841477 52.9691C0.979682 52.3746 1.56908 52.004 2.16255 52.1384C2.75602 52.2728 3.12592 52.8673 2.99178 53.4618C2.85764 54.0563 2.26417 54.4269 1.67071 54.2925C1.07724 54.1581 0.707337 53.5636 0.841477 52.9691Z" fill="black"/>
<path d="M126.429 29.7544C127.518 30.0028 128.604 29.3227 128.856 28.2314C129.108 27.1401 128.425 26.0488 127.335 25.8004C126.246 25.552 125.157 26.2321 124.909 27.3234C124.661 28.4147 125.339 29.506 126.429 29.7544ZM125.701 27.5066C125.852 26.8551 126.502 26.4438 127.152 26.5945C127.803 26.7451 128.213 27.3967 128.063 28.0482C127.913 28.6997 127.262 29.111 126.612 28.9603C125.961 28.8097 125.551 28.1581 125.701 27.5066Z" fill="black"/>
<path d="M142.709 53.0016C142.42 54.268 143.209 55.5304 144.473 55.8195C145.737 56.1086 146.997 55.3186 147.286 54.0522C147.574 52.7858 146.786 51.5235 145.521 51.2344C144.257 50.9453 142.997 51.7352 142.709 53.0016ZM143.501 53.1808C143.692 52.3542 144.517 51.837 145.343 52.0244C146.168 52.2117 146.684 53.0424 146.497 53.869C146.31 54.6956 145.481 55.2128 144.656 55.0254C143.83 54.8381 143.314 54.0074 143.501 53.1808Z" fill="black"/>
<path d="M6.32493 53.0464C6.10136 53.0749 5.93877 53.2744 5.96722 53.4984C5.99161 53.7224 6.19079 53.8852 6.41436 53.8567C8.35735 53.6409 10.028 53.5554 11.5279 53.5961C11.8612 53.5513 12.1702 53.6531 12.3612 53.8486C12.6092 54.5083 12.5076 54.4431 12.5726 54.606C13.0279 55.7339 14.4871 55.9823 15.7269 55.7258C16.7878 55.5059 17.8244 55.2901 18.3487 55.7258C18.9585 56.2267 19.0763 57.265 19.7064 58.0428C20.7592 59.3499 22.7225 59.0567 24.3241 58.5355C24.5354 58.4663 24.6533 58.2382 24.5842 58.0224C24.5151 57.8107 24.2834 57.6926 24.072 57.7618C22.7916 58.1812 21.1047 58.4785 20.3405 57.5297C20.1129 57.2487 19.9625 56.9067 19.804 56.5443C19.052 54.8218 18.4341 54.3413 15.7391 54.8951C15.0725 55.0335 13.727 55.1435 13.349 54.3454C13.3165 54.1092 13.1417 53.5025 13.0238 53.3681C12.6539 52.9242 12.0442 52.6962 11.4751 52.7858C10.0117 52.7369 8.30451 52.8224 6.32493 53.0464Z" fill="black"/>
<path d="M26.8524 30.2837C26.7914 30.98 27.1898 31.6234 27.9417 32.1976C30.779 34.3558 31.7221 35.0317 31.7342 35.7728C31.7749 36.2248 31.4904 36.8112 31.5432 37.3813C31.7139 38.4848 32.9456 38.9775 33.9537 39.4092C35.4373 40.1462 36.4576 41.4737 36.7299 43.0414C36.8234 43.5708 37.6242 43.4323 37.5307 42.903C37.1893 40.9402 35.791 39.3114 34.1 38.5866C33.3643 38.2731 32.4456 37.8821 32.348 37.2795C32.3318 37.1085 32.3846 36.8845 32.4375 36.6442C32.8724 34.7426 32.1407 34.3761 28.4255 31.5501C28.1734 31.3587 27.6044 30.8945 27.645 30.41C27.706 30.2186 27.958 29.848 27.9499 29.4123C27.9905 28.7404 27.5271 28.207 27.1776 27.869C25.8971 26.6759 24.3972 25.7108 22.7184 24.9941C22.5111 24.9086 22.2713 25.0023 22.1859 25.21C22.0965 25.4176 22.1941 25.6538 22.4014 25.7434C23.9948 26.4194 25.4134 27.3356 26.6207 28.4594C27.5393 29.3472 26.9906 29.6526 26.8442 30.2837H26.8524Z" fill="black"/>
<path d="M106.251 43.6848C106.117 43.868 106.157 44.1205 106.34 44.2549C107.54 45.1304 109.157 44.9919 110.1 43.9087C110.633 43.3142 110.95 42.4428 111.458 42.0926C111.938 42.3207 113.21 42.8134 113.356 42.8297C114.531 42.9396 115.612 42.0723 116.397 40.3864C116.775 39.5761 117.572 38.2283 118.645 38.3301C119.084 38.4359 119.515 38.5337 120.051 38.5662C120.897 38.4889 121.555 37.9066 122.063 36.8315L124.445 32.7188C124.559 32.5233 124.49 32.2749 124.299 32.1609C124.104 32.0469 123.856 32.1161 123.742 32.3075L121.344 36.4488C120.949 37.2754 120.514 37.707 120.035 37.7518C119.628 37.7233 119.25 37.6337 118.771 37.5238C117.551 37.4057 116.466 38.3016 115.657 40.0403C115.299 40.8099 114.543 42.0804 113.478 42.0193C112.869 41.7954 112.206 41.5633 111.629 41.2701C111.519 41.2131 111.393 41.2131 111.279 41.2619C110.373 41.6651 110.048 42.7523 109.491 43.3712C108.824 44.1327 107.678 44.2264 106.816 43.5993C106.633 43.4649 106.381 43.5056 106.247 43.6889L106.251 43.6848Z" fill="black"/>
<path d="M57.859 15.3312C57.6558 15.429 57.5704 15.6692 57.6639 15.8728C60.4361 21.7284 60.241 21.2601 60.2126 21.4434C59.9565 21.9442 59.8345 21.9727 59.7573 22.0827C59.1191 23.007 59.5622 24.1065 60.0215 24.9616C61.0337 26.851 60.68 27.2908 60.0215 28.0482C59.7817 28.3251 59.3102 28.8911 59.2736 29.2576C59.1923 30.0639 59.4199 30.8783 59.9118 31.5461L61.9279 35.2109C62.0377 35.4104 62.2816 35.4797 62.4808 35.3697C62.6759 35.2598 62.749 35.0155 62.6393 34.8159L60.5947 31.1022C60.2045 30.5647 60.0297 29.9702 60.0784 29.3798C60.1882 29.0988 60.4077 28.8422 60.6394 28.5735C61.5499 27.5148 61.8873 26.7126 60.7369 24.5666C60.2288 23.6219 60.1272 23.0029 60.4036 22.5672C60.6435 22.3311 60.7979 22.0786 60.9605 21.7528C61.0784 21.5207 61.0825 21.0199 60.7247 20.4498L58.3956 15.5145C58.298 15.3109 58.0582 15.2254 57.855 15.319L57.859 15.3312Z" fill="black"/>
<path d="M121.445 57.3099C120.636 58.2587 120.035 59.1586 119.661 60.0951C119.58 60.3028 119.681 60.539 119.889 60.6245C120.096 60.706 120.332 60.6082 120.417 60.3965C120.754 59.5495 121.307 58.7269 122.063 57.8392C122.535 57.2854 123.307 57.0859 123.937 57.371C124.628 57.77 125.457 59.0038 126.441 58.7636C127.413 58.5274 127.811 56.8782 128.51 56.3082C129.047 55.8724 129.547 56.1697 129.912 56.7561C129.949 56.8782 130.164 57.3628 130.563 57.6031C130.851 57.8026 131.213 57.7863 131.542 57.5461C132.238 57.0371 132.811 55.2901 135.27 54.0685C135.42 54.6264 135.193 55.8073 135.88 56.2634C136.644 56.8986 137.701 56.7398 138.258 55.3797C138.343 55.1721 138.245 54.9318 138.038 54.8504C137.827 54.7648 137.591 54.8626 137.506 55.0703C137.249 55.6973 136.884 56.0435 136.363 55.6118C135.981 55.3553 136.388 53.8039 135.701 53.3274C135.477 53.1116 135.107 53.136 134.904 53.3437C132.197 54.6916 131.364 56.8619 130.998 56.9312C130.868 56.8416 130.721 56.6298 130.636 56.4018C129.851 55.1191 128.782 55.0417 127.994 55.6851C127.616 55.9946 127.327 56.4873 127.047 56.9638C126.303 58.2342 126.254 58.2872 125.165 57.3221C124.888 57.0778 124.604 56.8253 124.303 56.6543C123.295 56.1982 122.149 56.4914 121.441 57.318L121.445 57.3099Z" fill="black"/>
<path d="M87.7438 29.1476C87.386 29.3716 87.008 29.5955 86.6991 29.9132C85.8292 30.8049 85.439 32.0265 85.5325 33.3174C85.7195 34.6245 86.0121 35.728 86.4308 36.7175C86.4837 36.8438 86.5934 36.9252 86.7153 36.9537C87.0365 37.027 87.3088 36.7053 87.1787 36.3958C86.7845 35.4715 86.5121 34.4372 86.3373 33.2278C86.2641 32.1935 86.5812 31.1918 87.2804 30.4792C87.9429 29.7991 89.3412 29.453 89.7274 28.2192C90.1054 27.0098 89.199 25.8045 89.2396 24.7457C89.2721 23.911 89.8006 23.288 90.5648 23.1291C90.8005 23.1088 91.459 22.9174 91.5972 22.7749C92.6907 21.6388 90.8412 20.0059 91.8086 15.7832C91.8411 15.6366 91.8655 15.5511 91.9183 15.4819C91.9305 15.4819 92.2151 15.6325 92.3695 15.714C92.776 15.9257 93.3289 16.2189 93.8817 15.8728C95.5117 14.8507 94.8328 12.2324 94.0077 12.7495C93.8166 12.8676 93.7597 13.1201 93.8776 13.3115C94.2516 13.9141 94.0483 14.8059 93.4508 15.1805C93.3045 15.2701 93.0768 15.1642 92.7476 14.9891C92.3533 14.7815 91.8086 14.4964 91.3371 14.9159C91.1135 15.1805 91.0607 15.4086 91.02 15.5959C90.0973 19.6231 91.5119 21.4678 91.0607 22.1437C90.8371 22.2292 90.6257 22.3025 90.4469 22.3188C89.2762 22.555 88.4714 23.4875 88.4266 24.7091C88.4023 25.3118 88.5852 25.8533 88.7478 26.3786C89.2274 27.9382 89.1136 28.2843 87.7478 29.1395L87.7438 29.1476Z" fill="black"/>
<path d="M96.2027 5.76599C96.4384 5.93294 96.7718 5.99402 97.0563 5.92887C98.5725 5.823 98.7066 5.77006 99.044 5.92887C99.0725 6.03474 99.0928 6.1284 99.1578 6.2302C99.422 6.93874 99.7513 7.70428 100.308 7.83051C100.572 7.89159 100.828 7.8468 101.036 7.70428C101.8 7.17899 101.609 5.68862 101.922 5.30992C102.215 5.04117 103.263 5.45244 103.991 5.10632C104.527 5.0941 104.588 4.31634 104.088 4.1046C103.491 3.37163 102.284 2.47986 102.271 2.46764C102.495 1.99936 102.556 1.40891 102.454 0.70852C102.471 0.415334 102.263 0.126219 101.975 0.0610664C101.751 0.00812992 101.666 -0.0244464 101.528 0.0284901C100.723 0.333893 100.389 1.06279 99.9464 1.20531C99.5643 1.33154 98.9343 0.802177 98.2961 0.655584C97.9628 0.578215 97.5441 0.6678 97.4709 0.993563C97.4425 1.11165 97.3977 1.3234 97.5116 1.55958C97.5522 1.76318 97.6254 1.96271 97.6985 2.15409C98.0888 3.20061 97.9302 3.40421 96.9831 4.01094C96.7149 4.18197 96.4384 4.36114 96.2189 4.5851C95.8368 4.72762 95.6864 5.39951 96.1986 5.76599H96.2027ZM96.9303 5.12668C96.8896 5.13482 96.8531 5.1389 96.8205 5.1389C97.3043 4.67061 98.2879 4.36521 98.605 3.53044C98.9099 2.73639 98.4871 2.03193 98.3367 1.51886C98.9017 1.75096 99.5196 2.20296 100.198 1.979C100.861 1.76318 101.137 1.15237 101.654 0.863257C101.727 1.39262 101.682 1.81204 101.519 2.17445C101.463 2.38213 101.41 2.62645 101.576 2.89928C102.015 3.60374 102.373 3.37978 103.296 4.43851C102.71 4.46294 101.889 4.21454 101.32 4.75612C101.032 5.10225 100.987 5.33435 100.91 5.88001C100.646 7.74093 100.385 7.15048 99.8245 5.73341C99.7838 5.56646 99.7188 5.38729 99.5724 5.2977C98.9058 4.8905 98.4262 5.01673 96.9222 5.12668H96.9303Z" fill="black"/>
<path d="M38.6242 47.1745C38.3396 47.1827 38.1486 47.4759 38.2624 47.7406C39.4778 50.5951 39.2827 50.9615 39.7136 51.0593C40.0225 51.1285 40.2948 50.8312 40.1851 50.5258C39.8883 49.6951 39.5875 48.8359 39.238 47.9727L41.9858 47.9034C42.2094 47.8994 42.3882 47.7121 42.3801 47.4881C42.376 47.2641 42.189 47.085 41.9655 47.0931L38.6242 47.1786V47.1745Z" fill="black"/>
<path d="M47.9083 83.4075C47.8433 82.8659 47.7823 82.3203 47.7132 81.7828C47.6847 81.5588 47.4774 81.4041 47.2579 81.4326C47.0344 81.4611 46.8799 81.6647 46.9083 81.8887C46.9774 82.4221 47.0384 82.9107 47.0953 83.3627C47.3717 83.3546 47.6441 83.3709 47.9124 83.4075H47.9083Z" fill="black"/>
<path d="M41.7704 56.3895C41.555 56.4547 41.4371 56.6827 41.5021 56.8985C43.441 63.1247 43.0955 63.2387 43.563 63.3446C43.8557 63.4138 44.1239 63.145 44.0467 62.8437C43.502 60.7629 42.9085 58.6821 42.2785 56.6583C42.2094 56.4425 41.9818 56.3244 41.7704 56.3895Z" fill="black"/>
<path d="M45.0548 68.793C44.8353 68.8418 44.6971 69.0576 44.7418 69.2775C46.132 75.7561 45.7824 75.7806 46.262 75.8905C46.5425 75.9557 46.8027 75.7113 46.7539 75.4263C46.3921 73.3088 45.9816 71.1832 45.5344 69.1065C45.4857 68.8866 45.2702 68.7482 45.0507 68.793H45.0548Z" fill="black"/>
<path d="M67.6593 47.6469C67.8829 47.6469 68.0658 47.4677 68.0699 47.2438C68.0699 47.0198 67.891 46.8325 67.6675 46.8325C65.5131 46.8121 63.3587 46.7958 61.2084 46.7958C60.7247 46.7958 60.6475 47.4922 61.1149 47.6021C61.2613 47.6347 61.3873 47.5817 67.6593 47.651V47.6469Z" fill="black"/>
<path d="M107.247 71.8429C107.023 71.8714 106.869 72.075 106.897 72.299C107.263 75.1331 107.137 74.7544 107.694 78.7247C107.727 78.9486 107.93 79.1034 108.153 79.0708C108.377 79.0382 108.531 78.8346 108.499 78.6107C107.954 74.7259 108.08 75.0924 107.706 72.1972C107.678 71.9732 107.475 71.8144 107.251 71.847L107.247 71.8429Z" fill="black"/>
<path d="M48.2863 46.9058C48.0627 46.9098 47.8839 47.0972 47.8879 47.3211C47.8879 47.5451 48.079 47.7242 48.3026 47.7202C50.4529 47.6795 52.6032 47.651 54.7535 47.6347C54.977 47.6347 55.16 47.4514 55.1559 47.2234C55.1559 46.9994 54.9689 46.8162 54.7453 46.8203C52.591 46.8365 50.4407 46.865 48.2863 46.9058Z" fill="black"/>
<path d="M87.0446 47.3089C86.821 47.3008 86.63 47.4759 86.6218 47.6998C86.6137 47.9279 86.7966 48.1152 87.0121 48.1233C89.1624 48.2048 91.3127 48.2984 93.4589 48.4002C93.6825 48.4124 93.8735 48.2374 93.8857 48.0134C93.8938 47.7894 93.7231 47.598 93.4996 47.5858C91.3493 47.484 89.1949 47.3904 87.0446 47.3089Z" fill="black"/>
<path d="M104.544 59.6309C106.097 65.9751 105.702 66.138 106.206 66.252C106.491 66.3172 106.751 66.0688 106.698 65.7797C106.304 63.6581 105.844 61.5244 105.332 59.4354C105.279 59.2155 105.06 59.0812 104.84 59.1382C104.621 59.1911 104.491 59.411 104.544 59.6309Z" fill="black"/>
<path d="M74.1265 46.9302C73.59 46.918 73.5697 47.7283 74.1103 47.7446C76.2606 47.7853 78.4109 47.8423 80.5612 47.9034C80.7848 47.9116 80.9717 47.7324 80.9799 47.5084C80.988 47.2845 80.8132 47.0971 80.5856 47.089C78.4312 47.0279 76.2809 46.9709 74.1265 46.9302Z" fill="black"/>
<path d="M99.5237 48.2902C99.5115 48.5142 99.6822 48.7097 99.9058 48.7219C100.373 48.7504 100.894 48.9499 101.28 49.2309C101.597 49.5444 101.763 49.9109 102.832 53.4169C102.897 53.6328 103.125 53.7549 103.341 53.6857C103.556 53.6205 103.678 53.3925 103.609 53.1767C103.28 52.0976 102.934 51.0226 102.568 49.9476C102.398 49.4263 102.202 48.9988 101.796 48.6079C101.223 48.1844 100.564 47.9401 99.9464 47.9075C99.7228 47.8953 99.5318 48.0663 99.5196 48.2902H99.5237Z" fill="black"/>
</g>
<defs>
<clipPath id="clip0_3296_5811">
<rect width="168" height="168" fill="white"/>
</clipPath>
</defs>
</svg>
