<svg width="30" height="24" viewBox="0 0 30 24" fill="none" xmlns="http://www.w3.org/2000/svg">
<g clip-path="url(#clip0_3164_29967)">
<path opacity="0.4" d="M0.042113 21.2531C0.126488 21.4875 0.323363 21.6703 0.567113 21.7312L3.56711 22.4812C3.62805 22.4953 3.68899 22.5047 3.74993 22.5047C3.89055 22.5047 4.03118 22.4672 4.15305 22.3875C4.32649 22.2797 4.44836 22.1016 4.48586 21.9C4.88899 19.8937 4.68743 18.0937 4.38743 16.8047C4.23743 16.1484 4.03586 15.4781 3.7593 14.8594C3.84836 13.125 4.6593 11.5359 5.94836 10.4437C6.48743 9.98906 7.10618 9.61874 7.79055 9.36093C10.2796 8.42812 12.7734 7.49062 15.2624 6.55781C15.6515 6.41249 15.8484 5.98124 15.7031 5.59218C15.5577 5.20312 15.1265 5.00624 14.7374 5.15156C12.2437 6.08437 9.75461 7.02187 7.26555 7.95468C6.14524 8.37656 5.16086 9.03749 4.37336 9.87187C3.09836 11.2172 2.32493 12.9984 2.2593 14.9203C2.25461 14.9484 2.25461 14.9766 2.25461 15.0047C2.25461 16.3359 1.74836 17.7141 1.2093 18.7922C0.904613 19.4016 0.557738 20.0016 0.154613 20.5547C-7.44909e-05 20.7516 -0.042262 21.0141 0.042113 21.2531Z" fill="#23D2B0"/>
<path d="M15 1.5C14.6203 1.5 14.2453 1.56562 13.8891 1.69219L0.740625 6.44062C0.295313 6.60469 0 7.02656 0 7.5C0 7.97344 0.295313 8.39531 0.740625 8.55938L4.36875 9.86719C5.15625 9.03281 6.14062 8.37188 7.26094 7.95L14.7328 5.14688C15.1219 5.00156 15.5531 5.19844 15.6984 5.5875C15.8438 5.97656 15.6469 6.40781 15.2578 6.55313L7.79062 9.35625C7.10625 9.61406 6.4875 9.98438 5.94844 10.4391L13.8937 13.3078C14.25 13.4344 14.625 13.5 15.0047 13.5C15.3844 13.5 15.7594 13.4344 16.1156 13.3078L29.2594 8.55938C29.7047 8.4 30 7.97344 30 7.5C30 7.02656 29.7047 6.60469 29.2594 6.44062L16.1109 1.69219C15.7547 1.56562 15.3797 1.5 15 1.5ZM6 19.125C6 20.7797 10.0312 22.5 15 22.5C19.9688 22.5 24 20.7797 24 19.125L23.2828 12.3094L16.6172 14.7188C16.0969 14.9062 15.5484 15 15 15C14.4516 15 13.8984 14.9062 13.3828 14.7188L6.71719 12.3094L6 19.125Z" fill="#23D2B0"/>
</g>
<defs>
<clipPath id="clip0_3164_29967">
<rect width="30" height="24" fill="white"/>
</clipPath>
</defs>
</svg>
