<svg width="20" height="20" viewBox="0 0 20 20" fill="none" xmlns="http://www.w3.org/2000/svg">
<g clip-path="url(#clip0_702_1032)">
<path d="M5.43042 7.83437C5.11979 7.83437 4.86792 8.08625 4.86792 8.39687C4.86792 8.7075 5.11979 8.95937 5.43042 8.95937H11.4617C11.7723 8.95937 12.0242 8.7075 12.0242 8.39687C12.0242 8.08625 11.7723 7.83437 11.4617 7.83437H5.43042Z" fill="white"/>
<path d="M5.43042 7.83437C5.11979 7.83437 4.86792 8.08625 4.86792 8.39687C4.86792 8.7075 5.11979 8.95937 5.43042 8.95937H11.4617C11.7723 8.95937 12.0242 8.7075 12.0242 8.39687C12.0242 8.08625 11.7723 7.83437 11.4617 7.83437H5.43042Z" fill="#00946A"/>
<path d="M8.14229 11.0275H5.43042C5.11979 11.0275 4.86792 11.2794 4.86792 11.59C4.86792 11.9006 5.11979 12.1525 5.43042 12.1525H8.14229C8.45292 12.1525 8.7048 11.9006 8.7048 11.59C8.7048 11.2794 8.45292 11.0275 8.14229 11.0275Z" fill="white"/>
<path d="M8.14229 11.0275H5.43042C5.11979 11.0275 4.86792 11.2794 4.86792 11.59C4.86792 11.9006 5.11979 12.1525 5.43042 12.1525H8.14229C8.45292 12.1525 8.7048 11.9006 8.7048 11.59C8.7048 11.2794 8.45292 11.0275 8.14229 11.0275Z" fill="#00946A"/>
<path d="M8.05927 18.1875H3.77802C2.85739 18.1875 2.10927 17.4363 2.10927 16.5125V5.11875C2.10927 4.195 2.85739 3.44375 3.77802 3.44375H4.93989V3.585C4.93989 4.40563 5.60739 5.0725 6.42802 5.0725H11.803C12.6236 5.0725 13.2911 4.40563 13.2911 3.585V3.44375H14.4474C15.383 3.44375 16.1155 4.17937 16.1155 5.11875V8.325C16.1155 8.63562 16.3674 8.8875 16.678 8.8875C16.9886 8.8875 17.2405 8.63562 17.2405 8.325V5.11875C17.2405 3.575 15.9874 2.31875 14.4468 2.31875H13.2905V2.175C13.2905 1.35438 12.623 0.6875 11.8024 0.6875H6.42739C5.60677 0.6875 4.93927 1.35438 4.93927 2.175V2.31875H3.77802C2.23739 2.31875 0.983643 3.575 0.983643 5.11875V16.5125C0.983643 18.0562 2.23739 19.3125 3.77802 19.3125H8.05927C8.36989 19.3125 8.62177 19.0606 8.62177 18.75C8.62177 18.4394 8.36989 18.1875 8.05927 18.1875ZM6.06552 2.175C6.06552 1.975 6.22802 1.8125 6.42802 1.8125H11.803C12.003 1.8125 12.1655 1.975 12.1655 2.175V3.58438C12.1655 3.78438 12.003 3.94688 11.803 3.94688H6.42802C6.22802 3.94688 6.06552 3.78438 6.06552 3.58438V2.175Z" fill="white"/>
<path d="M8.05927 18.1875H3.77802C2.85739 18.1875 2.10927 17.4363 2.10927 16.5125V5.11875C2.10927 4.195 2.85739 3.44375 3.77802 3.44375H4.93989V3.585C4.93989 4.40563 5.60739 5.0725 6.42802 5.0725H11.803C12.6236 5.0725 13.2911 4.40563 13.2911 3.585V3.44375H14.4474C15.383 3.44375 16.1155 4.17937 16.1155 5.11875V8.325C16.1155 8.63562 16.3674 8.8875 16.678 8.8875C16.9886 8.8875 17.2405 8.63562 17.2405 8.325V5.11875C17.2405 3.575 15.9874 2.31875 14.4468 2.31875H13.2905V2.175C13.2905 1.35438 12.623 0.6875 11.8024 0.6875H6.42739C5.60677 0.6875 4.93927 1.35438 4.93927 2.175V2.31875H3.77802C2.23739 2.31875 0.983643 3.575 0.983643 5.11875V16.5125C0.983643 18.0562 2.23739 19.3125 3.77802 19.3125H8.05927C8.36989 19.3125 8.62177 19.0606 8.62177 18.75C8.62177 18.4394 8.36989 18.1875 8.05927 18.1875ZM6.06552 2.175C6.06552 1.975 6.22802 1.8125 6.42802 1.8125H11.803C12.003 1.8125 12.1655 1.975 12.1655 2.175V3.58438C12.1655 3.78438 12.003 3.94688 11.803 3.94688H6.42802C6.22802 3.94688 6.06552 3.78438 6.06552 3.58438V2.175Z" fill="#00946A"/>
<path d="M18.4186 10.8487C17.6486 10.0781 16.3042 10.0775 15.5336 10.8487L10.5467 15.8356C10.3861 15.9962 10.2811 16.2 10.243 16.4244L9.96922 18.0425C9.9111 18.3894 10.0255 18.7456 10.2742 18.9937C10.4798 19.1994 10.758 19.3119 11.0436 19.3119C11.1042 19.3119 11.1642 19.3069 11.2242 19.2969L12.8417 19.0237C13.0661 18.9856 13.2698 18.8806 13.4305 18.72L18.4173 13.7331C19.213 12.9381 19.213 11.6444 18.4186 10.8487ZM12.6548 17.915L11.0792 18.2294L11.343 16.6312L14.9173 13.0569L16.2117 14.3512L12.6548 17.915ZM17.6223 12.9375L17.0061 13.555L15.7123 12.2612L16.3292 11.6444C16.5017 11.4719 16.7317 11.3762 16.9755 11.3762C17.2205 11.3762 17.4498 11.4712 17.6223 11.6444C17.9792 12.0012 17.9792 12.5806 17.6223 12.9375Z" fill="white"/>
<path d="M18.4186 10.8487C17.6486 10.0781 16.3042 10.0775 15.5336 10.8487L10.5467 15.8356C10.3861 15.9962 10.2811 16.2 10.243 16.4244L9.96922 18.0425C9.9111 18.3894 10.0255 18.7456 10.2742 18.9937C10.4798 19.1994 10.758 19.3119 11.0436 19.3119C11.1042 19.3119 11.1642 19.3069 11.2242 19.2969L12.8417 19.0237C13.0661 18.9856 13.2698 18.8806 13.4305 18.72L18.4173 13.7331C19.213 12.9381 19.213 11.6444 18.4186 10.8487ZM12.6548 17.915L11.0792 18.2294L11.343 16.6312L14.9173 13.0569L16.2117 14.3512L12.6548 17.915ZM17.6223 12.9375L17.0061 13.555L15.7123 12.2612L16.3292 11.6444C16.5017 11.4719 16.7317 11.3762 16.9755 11.3762C17.2205 11.3762 17.4498 11.4712 17.6223 11.6444C17.9792 12.0012 17.9792 12.5806 17.6223 12.9375Z" fill="#00946A"/>
</g>
<defs>
<clipPath id="clip0_702_1032">
<rect width="20" height="20" fill="white"/>
</clipPath>
</defs>
</svg>
