<svg width="29" height="22" viewBox="0 0 29 22" fill="none" xmlns="http://www.w3.org/2000/svg">
<g clip-path="url(#clip0_3164_29976)">
<path opacity="0.4" d="M4 1.8125C4 1.08652 4.58652 0.5 5.3125 0.5H7.9375C8.66348 0.5 9.25 1.08652 9.25 1.8125V4.4375H4V1.8125ZM4 5.75H9.25V16.25H4V5.75ZM4 17.5625H9.25V20.1875C9.25 20.9135 8.66348 21.5 7.9375 21.5H5.3125C4.58652 21.5 4 20.9135 4 20.1875V17.5625ZM10.5625 1.8125C10.5625 1.08652 11.149 0.5 11.875 0.5H14.5C15.226 0.5 15.8125 1.08652 15.8125 1.8125V4.4375H10.5625V1.8125ZM10.5625 5.75H15.8125V16.25H10.5625V5.75ZM10.5625 17.5625H15.8125V20.1875C15.8125 20.9135 15.226 21.5 14.5 21.5H11.875C11.149 21.5 10.5625 20.9135 10.5625 20.1875V17.5625ZM15.8699 5.33164C17.5475 4.88047 19.225 4.4334 20.9066 3.98223L21.243 5.24961L16.2062 6.60313L15.8699 5.33574V5.33164ZM18.9133 16.7463C20.5908 16.2951 22.2684 15.848 23.95 15.3969L24.2863 16.6643L19.2496 18.0137C19.1389 17.5912 19.024 17.1688 18.9133 16.7463Z" fill="#F8A629"/>
<path d="M15.8125 5.11842L15.8699 5.3317L20.9066 3.98639L20.234 1.47213C20.0494 0.774868 19.3316 0.36061 18.6385 0.545181L16.1201 1.22194C16.0094 1.25065 15.9068 1.29577 15.8125 1.34909V4.43756H10.5625V5.75006H15.8125V5.11842ZM21.243 5.24967L16.2063 6.60319L18.9133 16.7505L23.95 15.401L21.243 5.25377V5.24967ZM19.9223 20.528C20.1068 21.2253 20.8246 21.6395 21.5178 21.4549L24.0361 20.7782C24.7293 20.5895 25.1436 19.8717 24.959 19.1745L24.2904 16.6684L19.2496 18.0137L19.9182 20.528H19.9223ZM4 4.43756V5.75006H9.25V4.43756H4ZM9.25 16.2501H4V17.5626H9.25V16.2501ZM15.8125 16.2501H10.5625V17.5626H15.8125V16.2501Z" fill="#F8A629"/>
</g>
<defs>
<clipPath id="clip0_3164_29976">
<rect width="21" height="21" fill="white" transform="translate(4 0.5)"/>
</clipPath>
</defs>
</svg>
