<svg id="Capa_1" enable-background="new 0 0 559.393 559.393" height="512" viewBox="0 0 559.393 559.393" width="512" xmlns="http://www.w3.org/2000/svg"><g><path d="m260.755 25.633 41.051 14.958-137.042 376.112-41.051-14.958c-5.345-1.948-8.1-7.86-6.152-13.205l129.988-356.755c1.948-5.345 7.86-8.1 13.206-6.152z" fill="#d6d6d4"/><path d="m301.806 40.591 235.599 85.843c17.343 6.319 26.279 25.501 19.96 42.843l-114.159 313.31c-6.319 17.343-25.501 26.279-42.843 19.96l-235.599-85.843z" fill="#00946A"/><path d="m337.032 133.357 145.128 52.879c9.231 3.363 13.988 13.573 10.624 22.805l-30.768 84.442c-3.363 9.231-13.573 13.988-22.805 10.624l-145.128-52.879c-9.231-3.363-13.988-13.573-10.624-22.805l30.768-84.442c3.364-9.23 13.573-13.987 22.805-10.624z" fill="#d6d6d4"/><path d="m417.731 217.598c-.997-.001-1.986-.176-2.922-.516l-46.064-16.784c-4.423-1.614-6.701-6.508-5.087-10.931s6.508-6.701 10.931-5.087l46.064 16.784c4.423 1.613 6.701 6.507 5.088 10.93-1.228 3.365-4.428 5.604-8.01 5.604z" fill="#00946A"/><path d="m417.09 258.259c-.997-.001-1.985-.176-2.922-.516l-71.09-25.9c-4.423-1.614-6.701-6.508-5.087-10.931s6.508-6.701 10.931-5.087l71.09 25.9c4.423 1.613 6.701 6.507 5.087 10.93-1.227 3.365-4.427 5.604-8.009 5.604z" fill="#00946A"/><path d="m10.301 134.084h43.691v400.301h-43.691c-5.689.001-10.301-4.611-10.301-10.3v-379.7c0-5.689 4.612-10.301 10.301-10.301z" fill="#00946A"/><path d="m53.993 134.084h250.751c18.458 0 33.421 14.963 33.421 33.421v333.459c0 18.458-14.963 33.421-33.421 33.421h-250.751z" fill="#feb431"/><path d="m118.848 209.187h154.461c9.825 0 17.789 7.965 17.789 17.789v89.873c0 9.825-7.965 17.789-17.789 17.789h-154.461c-9.825 0-17.789-7.965-17.789-17.789v-89.873c0-9.825 7.964-17.789 17.789-17.789z" fill="#d6d6d4"/><g fill="#00946A"><path d="m220.587 261.223h-49.02c-4.708 0-8.525-3.817-8.525-8.525s3.817-8.525 8.525-8.525h49.02c4.708 0 8.525 3.817 8.525 8.525s-3.817 8.525-8.525 8.525z"/><path d="m233.907 299.653h-75.661c-4.708 0-8.525-3.817-8.525-8.525s3.817-8.525 8.525-8.525h75.661c4.708 0 8.525 3.817 8.525 8.525s-3.816 8.525-8.525 8.525z"/></g></g></svg>