<svg width="19" height="19" viewBox="0 0 19 19" fill="none" xmlns="http://www.w3.org/2000/svg">
<path d="M17.0683 8.50263L15.9917 7.25179C15.7858 7.01429 15.6196 6.57096 15.6196 6.25429V4.90846C15.6196 4.06929 14.9308 3.38054 14.0917 3.38054H12.7458C12.4371 3.38054 11.9858 3.21429 11.7483 3.00846L10.4975 1.93179C9.95124 1.46471 9.05665 1.46471 8.50249 1.93179L7.25957 3.01638C7.02207 3.21429 6.57082 3.38054 6.26207 3.38054H4.89249C4.05332 3.38054 3.36457 4.06929 3.36457 4.90846V6.26221C3.36457 6.57096 3.19832 7.01429 3.00041 7.25179L1.93166 8.51054C1.47249 9.05679 1.47249 9.94346 1.93166 10.4897L3.00041 11.7485C3.19832 11.986 3.36457 12.4293 3.36457 12.738V14.0918C3.36457 14.931 4.05332 15.6197 4.89249 15.6197H6.26207C6.57082 15.6197 7.02207 15.786 7.25957 15.9918L8.51041 17.0685C9.05665 17.5355 9.95124 17.5355 10.5054 17.0685L11.7562 15.9918C11.9937 15.786 12.4371 15.6197 12.7537 15.6197H14.0996C14.9387 15.6197 15.6275 14.931 15.6275 14.0918V12.746C15.6275 12.4372 15.7937 11.986 15.9996 11.7485L17.0762 10.4976C17.5354 9.95138 17.5354 9.04888 17.0683 8.50263ZM12.7933 8.00388L8.96957 11.8276C8.85874 11.9385 8.70832 12.0018 8.54999 12.0018C8.39165 12.0018 8.24124 11.9385 8.13041 11.8276L6.21457 9.91179C5.98499 9.68221 5.98499 9.30221 6.21457 9.07263C6.44415 8.84304 6.82415 8.84304 7.05374 9.07263L8.54999 10.5689L11.9542 7.16471C12.1837 6.93513 12.5637 6.93513 12.7933 7.16471C13.0229 7.39429 13.0229 7.77429 12.7933 8.00388Z" fill="#27BB50"/>
</svg>
