<svg width="40" height="40" viewBox="0 0 40 40" fill="none" xmlns="http://www.w3.org/2000/svg">
<path d="M23.125 18.125C22.6937 18.125 22.3438 18.475 22.3438 18.9062C22.3438 19.3375 22.6937 19.6875 23.125 19.6875C23.5562 19.6875 23.9062 19.3375 23.9062 18.9062C23.9062 18.475 23.5562 18.125 23.125 18.125Z" fill="#F3B61F"/>
<path d="M20 13.4375C19.5687 13.4375 19.2188 13.7875 19.2188 14.2188C19.2188 14.65 19.5687 15 20 15C20.4312 15 20.7812 14.65 20.7812 14.2188C20.7812 13.7875 20.4312 13.4375 20 13.4375Z" fill="#F3B61F"/>
<path d="M10.625 33.75C10.1937 33.75 9.84375 34.1 9.84375 34.5312C9.84375 34.9625 10.1937 35.3125 10.625 35.3125C11.0562 35.3125 11.4062 34.9625 11.4062 34.5312C11.4062 34.1 11.0562 33.75 10.625 33.75Z" fill="#F3B61F"/>
<path d="M35.5012 31.8498L25.4687 14.0141V4.55359C26.3782 4.23117 27.0312 3.36234 27.0312 2.34375C27.0312 1.05141 25.9798 0 24.6875 0H15.3125C14.0202 0 12.9687 1.05141 12.9687 2.34375C12.9687 3.36234 13.6218 4.23117 14.5312 4.55359V14.0141L4.49874 31.8498C3.53562 33.562 3.55273 35.5966 4.54437 37.2923C5.53593 38.9877 7.30062 40 9.26484 40H30.7351C32.6994 40 34.464 38.9877 35.4556 37.2923C36.4473 35.5966 36.4644 33.562 35.5012 31.8498ZM15.9934 14.6017C16.0592 14.4848 16.0937 14.3529 16.0937 14.2188V4.6875H16.875C17.3064 4.6875 17.6562 4.33766 17.6562 3.90625C17.6562 3.47484 17.3064 3.125 16.875 3.125H15.3125C14.8817 3.125 14.5312 2.77453 14.5312 2.34375C14.5312 1.91297 14.8817 1.5625 15.3125 1.5625H24.6875C25.1183 1.5625 25.4687 1.91297 25.4687 2.34375C25.4687 2.77453 25.1183 3.125 24.6875 3.125H23.125C22.6936 3.125 22.3437 3.47484 22.3437 3.90625C22.3437 4.33766 22.6936 4.6875 23.125 4.6875H23.9062V14.2188C23.9062 14.353 23.9408 14.4848 24.0066 14.6017L28.6113 22.7882C25.7992 22.5605 22.9969 23.1292 20.4222 24.4624C17.1123 26.1752 13.4277 26.4768 9.95343 25.3395L15.9934 14.6017ZM34.1068 36.5034C33.3986 37.7145 32.1381 38.4375 30.7351 38.4375H9.26484C7.86187 38.4375 6.6014 37.7145 5.8932 36.5034C5.18484 35.2923 5.17257 33.8389 5.86062 32.6158L9.17374 26.7258C10.7812 27.2871 12.4425 27.5705 14.1298 27.5705C14.3795 27.5705 14.6299 27.5643 14.8808 27.5519C17.0609 27.4439 19.1669 26.8713 21.1405 25.85C23.7805 24.4831 26.6841 24.0113 29.561 24.4765L34.1394 32.6158C34.8274 33.8389 34.8152 35.2923 34.1068 36.5034Z" fill="#F3B61F"/>
<path d="M16.875 18.125C15.5827 18.125 14.5312 19.1764 14.5312 20.4688C14.5312 21.7611 15.5827 22.8125 16.875 22.8125C18.1673 22.8125 19.2188 21.7611 19.2188 20.4688C19.2188 19.1764 18.1673 18.125 16.875 18.125ZM16.875 21.25C16.4442 21.25 16.0938 20.8995 16.0938 20.4688C16.0938 20.038 16.4442 19.6875 16.875 19.6875C17.3058 19.6875 17.6562 20.038 17.6562 20.4688C17.6562 20.8995 17.3058 21.25 16.875 21.25Z" fill="#F3B61F"/>
<path d="M29.375 33.75H13.75C13.3186 33.75 12.9688 34.0998 12.9688 34.5312C12.9688 34.9627 13.3186 35.3125 13.75 35.3125H29.375C29.8064 35.3125 30.1562 34.9627 30.1562 34.5312C30.1562 34.0998 29.8064 33.75 29.375 33.75Z" fill="#F3B61F"/>
</svg>
