<svg width="20" height="20" viewBox="0 0 20 20" fill="none" xmlns="http://www.w3.org/2000/svg">
<path d="M9.99996 1.66666C5.40829 1.66666 1.66663 5.40833 1.66663 10C1.66663 14.5917 5.40829 18.3333 9.99996 18.3333C14.5916 18.3333 18.3333 14.5917 18.3333 10C18.3333 5.40833 14.5916 1.66666 9.99996 1.66666ZM13.9833 8.08333L9.25829 12.8083C9.14163 12.925 8.98329 12.9917 8.81663 12.9917C8.64996 12.9917 8.49163 12.925 8.37496 12.8083L6.01663 10.45C5.77496 10.2083 5.77496 9.80833 6.01663 9.56666C6.25829 9.325 6.65829 9.325 6.89996 9.56666L8.81663 11.4833L13.1 7.2C13.3416 6.95833 13.7416 6.95833 13.9833 7.2C14.225 7.44166 14.225 7.83333 13.9833 8.08333Z" fill="#14BF9E"/>
</svg>
