<svg width="16" height="16" viewBox="0 0 16 16" fill="none" xmlns="http://www.w3.org/2000/svg">
<path d="M8.00021 3.10001C4.81355 3.10001 2.22021 5.69334 2.22021 8.88001C2.22021 12.0667 4.81355 14.6667 8.00021 14.6667C11.1869 14.6667 13.7802 12.0733 13.7802 8.88667C13.7802 5.70001 11.1869 3.10001 8.00021 3.10001ZM8.50021 8.66667C8.50021 8.94001 8.27355 9.16667 8.00021 9.16667C7.72688 9.16667 7.50021 8.94001 7.50021 8.66667V5.33334C7.50021 5.06001 7.72688 4.83334 8.00021 4.83334C8.27355 4.83334 8.50021 5.06001 8.50021 5.33334V8.66667Z" fill="#00946A"/>
<path d="M9.9266 2.29999H6.07326C5.80659 2.29999 5.59326 2.08666 5.59326 1.81999C5.59326 1.55333 5.80659 1.33333 6.07326 1.33333H9.9266C10.1933 1.33333 10.4066 1.54666 10.4066 1.81333C10.4066 2.07999 10.1933 2.29999 9.9266 2.29999Z" fill="#00946A"/>
</svg>
